<svg xmlns="http://www.w3.org/2000/svg" viewBox="0 0 32 32" fill="none">
  <defs>
    <clipPath id="icon">
      <rect width="32" height="32" rx="6"/>
    </clipPath>
    <clipPath id="halfLeft">
      <rect x="0" y="0" width="16" height="32"/>
    </clipPath>
    <clipPath id="halfRight">
      <rect x="16" y="0" width="16" height="32"/>
    </clipPath>
  </defs>
  <g clip-path="url(#icon)">
    <rect width="16" height="32" fill="#6366F1"/>
    <rect x="16" width="16" height="32" fill="#F97316"/>
  </g>
  <path
    fill="#F97316"
    clip-path="url(#halfLeft)"
    d="M10 7h5.4c3.8 0 6.6 2.5 6.6 6.1 0 2.7-1.6 4.8-4.1 5.5 2.9 0.7 4.7 3 4.7 6.1 0 3.9-3.1 6.5-7.7 6.5H10V7zm3.8 3.4V14h1.7c1.5 0 2.3-0.9 2.3-2.1 0-1.2-0.8-1.9-2.3-1.9h-1.7zm0 7v5.6h2.1c1.9 0 3-1.1 3-2.7 0-1.6-1.1-2.5-3-2.5h-2.1V17.4z"
  />
  <path
    fill="#6366F1"
    clip-path="url(#halfRight)"
    d="M10 7h5.4c3.8 0 6.6 2.5 6.6 6.1 0 2.7-1.6 4.8-4.1 5.5 2.9 0.7 4.7 3 4.7 6.1 0 3.9-3.1 6.5-7.7 6.5H10V7zm3.8 3.4V14h1.7c1.5 0 2.3-0.9 2.3-2.1 0-1.2-0.8-1.9-2.3-1.9h-1.7zm0 7v5.6h2.1c1.9 0 3-1.1 3-2.7 0-1.6-1.1-2.5-3-2.5h-2.1V17.4z"
  />
</svg>
